# xmcd
#
# Track frame offsets:
#       150
#       13032
#       29495
#       43253
#       55868
#       66470
#       78455
#       90614
#       105150
#       116376
#       127192
#       140624
#       150268
#       161413
#       175958
#       186822
#       198785
#       210414
#       219476
#       232025
#
# Disc length: 3212 seconds
#
# Revision: 0
# Processed by: cddbd v1.4PL0 Copyright (c) Steve Scherf et al.
# Submitted via: WhereIsIt 3.26
#
DISCID=110c8a14
DTITLE=Various Country - That's Country CD-9
DYEAR=1900
DGENRE=
TTITLE0=don williams - where do we go from here
TTITLE1=john brack-geff turner - amazing grace
TTITLE2=porter wagoner - nothing between
TTITLE3=boxcar willie - hobo heaven
TTITLE4=patsy cline - stop look and listen
TTITLE5=conway twitty - to see my angel cry
TTITLE6=kitty wells - left to right
TTITLE7=nitty gritty dirt - home again in my heart
TTITLE8=razzy bailey - 9.999.999 tears
TTITLE9=willie nelson - december day
TTITLE10=anne murray - another sleepless night
TTITLE11=willie nelson - half a man
TTITLE12=kitty wells - mommy for a day
TTITLE13=lynn anderson - cry
TTITLE14=george jones - don't you ever get tired of
TTITLE15=connie smith - once a day
TTITLE16=barbara mandrell - give a little take a little
TTITLE17=don williams - in my life
TTITLE18=dolly parton - little blossom
TTITLE19=bob wills - ole san antonio rose
EXTD=
EXTT0=
EXTT1=
EXTT2=
EXTT3=
EXTT4=
EXTT5=
EXTT6=
EXTT7=
EXTT8=
EXTT9=
EXTT10=
EXTT11=
EXTT12=
EXTT13=
EXTT14=
EXTT15=
EXTT16=
EXTT17=
EXTT18=
EXTT19=
PLAYORDER=
